<?xml version="1.0" standalone="no"?><!-- Generator: Gravit.io --><svg xmlns="http://www.w3.org/2000/svg" xmlns:xlink="http://www.w3.org/1999/xlink" style="isolation:isolate" viewBox="0 0 500 500" width="500" height="500"><defs><clipPath id="_clipPath_OsZG20GVjmKPqEgX1r7X6iop0lrtsMZz"><rect width="500" height="500"/></clipPath></defs><g clip-path="url(#_clipPath_OsZG20GVjmKPqEgX1r7X6iop0lrtsMZz)"><path d=" M 356.691 195.387 L 325.29 175.129 L 321.643 172.784 L 321.643 172.784 C 317.507 176.366 312.937 179.404 308.029 181.849 C 305.525 183.091 302.946 184.164 300.292 185.049 C 297.694 185.934 295.04 186.574 292.329 186.988 C 291.2 187.157 290.089 187.459 289.035 187.892 C 288.301 188.193 287.623 188.607 287.021 189.115 C 286.588 189.51 286.23 189.981 285.967 190.489 C 285.628 191.223 285.421 192.014 285.383 192.823 C 285.346 193.294 285.327 193.765 285.327 194.216 C 285.364 197.191 285.835 200.127 286.701 202.951 C 287.529 205.868 288.715 208.673 290.202 211.309 C 293.261 216.638 296.213 222.021 299.023 227.493 L 299.023 227.493 L 329.8 222.365 C 332.396 211.61 350.393 212.517 350.393 225.085 C 350.393 235.6 337.209 237.764 331.781 231.578 L 331.781 231.578 L 303.3 236.336 C 304.464 238.921 305.565 241.535 306.598 244.175 C 308.16 248.144 309.48 252.208 310.559 256.343 L 346.265 261.265 L 346.265 261.265 L 346.265 261.265 C 348.512 250.097 366.945 250.872 366.945 263.592 C 366.945 273.405 355.462 275.945 349.517 271.212 L 312.572 266.131 L 312.572 266.131 C 313.116 269.898 313.393 273.701 313.393 277.513 C 313.375 284.383 312.471 291.217 310.72 297.843 C 308.687 305.278 305.864 312.469 302.268 319.283 C 298.581 326.359 294.27 333.074 289.394 339.36 L 289.394 339.36 L 308.543 366.481 C 314.398 365.365 321.238 368.681 321.238 376.429 C 321.238 389.67 300.334 389.67 300.334 376.429 L 300.334 376.429 L 300.334 376.429 C 300.334 374.868 300.612 373.486 301.104 372.285 L 301.104 372.285 L 283.146 346.834 C 282.951 347.05 282.756 347.266 282.56 347.481 C 274.767 356.084 265.957 363.727 256.357 370.259 C 255.977 370.518 255.596 370.775 255.214 371.03 L 262.366 401.458 L 262.366 401.458 L 262.366 401.458 C 267.205 401.897 271.729 405.267 271.729 411.568 C 271.729 424.809 250.825 424.809 250.825 411.568 L 250.825 411.568 L 250.825 411.568 C 250.825 408.571 251.849 406.236 253.443 404.566 L 253.401 404.386 L 246.778 376.265 L 246.778 376.265 C 239.98 380.171 232.872 383.531 225.523 386.315 C 214.699 390.419 203.386 393.073 191.866 394.221 C 189.381 394.466 186.896 394.598 184.411 394.598 C 181.644 394.617 178.858 394.429 176.11 394.033 C 173.625 393.694 171.178 393.13 168.769 392.377 C 166.665 391.715 164.64 390.843 162.724 389.777 L 162.724 389.777 L 141.356 403.308 C 141.356 403.311 141.356 403.314 141.356 403.317 C 141.356 416.557 120.452 416.557 120.452 403.317 L 120.452 403.317 L 120.452 403.317 C 120.452 393.735 130.911 390.931 137.033 394.905 L 137.033 394.905 L 154.899 383.589 C 152.749 381.152 151.038 378.345 149.85 375.303 C 148.42 371.52 147.686 367.491 147.742 363.444 C 147.78 358.832 148.552 354.258 150.039 349.872 C 151.067 346.773 152.375 343.764 153.943 340.895 L 129.31 338.49 L 129.31 338.49 C 124.426 345.765 110 343.903 110 332.904 L 110 332.904 L 110 332.904 C 110 320.758 126.807 319.503 130.28 329.139 L 159.903 332.032 L 159.903 332.032 C 161.629 329.916 163.511 327.928 165.531 326.079 C 169.032 322.878 172.966 320.187 177.239 318.097 C 182.529 314.577 187.48 310.568 192.016 306.144 C 195.63 302.605 198.83 298.671 201.504 294.398 C 203.631 291.009 205.287 287.339 206.417 283.499 C 207.358 280.261 207.828 276.91 207.847 273.541 C 207.838 272.897 207.817 272.25 207.78 271.602 L 207.78 271.602 L 180.544 271.602 C 177.595 281.689 160.059 280.67 160.059 268.543 L 160.059 268.543 L 160.059 268.543 C 160.059 266.945 160.35 265.536 160.862 264.316 L 160.862 262.19 L 162.113 262.19 C 166.114 257.115 174.908 257.115 178.909 262.19 L 178.909 262.19 L 206.3 262.19 C 205.677 259.545 204.899 256.938 203.969 254.378 C 203.122 252.044 202.2 249.766 201.202 247.507 C 200.186 245.192 199.132 242.914 198.059 240.618 C 196.816 238.02 195.63 235.384 194.463 232.749 C 193.543 230.658 192.695 228.535 191.904 226.382 L 157.078 235.092 L 157.078 235.092 L 157.078 235.092 C 154.802 245.976 136.405 245.207 136.405 232.786 L 136.405 232.786 L 136.405 232.786 C 136.405 222.149 149.297 219.865 154.832 225.935 L 189.078 217.387 L 189.078 217.387 C 187.907 212.795 187.124 208.111 186.745 203.384 C 186.745 203.195 186.727 203.007 186.727 202.819 L 186.708 200.165 C 186.708 200.146 186.708 200.146 186.708 200.146 C 186.689 195.873 186.858 191.619 187.197 187.364 C 187.517 183.524 188.044 179.703 188.797 175.919 C 189.494 172.399 190.454 168.917 191.659 165.529 C 192.826 162.272 194.256 159.11 195.932 156.06 C 196.849 154.401 197.834 152.787 198.887 151.215 L 198.887 151.215 L 168.448 143.909 C 162.84 149.663 150.157 147.383 150.157 137.069 L 150.157 137.069 L 150.157 137.069 C 150.157 124.325 168.662 123.571 170.85 134.808 L 170.85 134.808 L 170.85 134.808 L 170.85 134.808 L 205.23 143.06 C 206.354 141.789 207.517 140.55 208.713 139.344 C 211.405 136.653 214.229 134.055 217.165 131.608 C 219.318 129.809 221.505 128.045 223.732 126.326 L 219.644 101.818 L 219.644 101.818 L 219.644 101.818 C 214.902 101.299 210.534 98.013 210.534 91.961 L 210.534 91.961 L 210.534 91.961 C 210.534 78.416 231.438 78.416 231.438 91.961 C 231.438 94.963 230.364 97.284 228.702 98.925 L 232.224 120.034 L 232.224 120.034 C 237.06 116.678 242.132 113.655 247.396 110.995 C 253.382 107.984 259.707 105.668 266.239 104.144 C 269.213 103.428 272.244 102.901 275.294 102.562 C 276.202 102.459 277.112 102.373 278.023 102.304 L 278.023 102.304 L 278.023 87.405 L 278.023 87.405 C 274.499 86.094 271.729 83.029 271.729 78.209 L 271.729 78.209 L 271.729 78.209 C 271.729 64.663 292.633 64.663 292.633 78.209 C 292.633 82.516 290.42 85.422 287.435 86.927 L 287.435 102.196 C 289.361 102.299 291.286 102.476 293.195 102.732 C 296.358 103.146 299.501 103.767 302.588 104.576 L 302.588 104.576 C 308.029 106.572 313.28 109.113 318.231 112.144 C 318.558 112.341 318.882 112.542 319.203 112.746 L 330.508 94.641 C 329.346 93.099 328.633 91.105 328.633 88.66 L 328.633 88.66 L 328.633 88.66 C 328.633 75.115 349.537 75.115 349.537 88.66 C 349.537 95.259 344.346 98.569 339.138 98.591 L 339.138 98.591 L 326.682 118.54 L 326.682 118.54 C 327.51 119.311 328.314 120.11 329.093 120.935 C 331.897 123.928 334.137 127.391 335.719 131.175 C 337.036 134.356 337.762 137.74 337.884 141.17 L 337.884 141.17 L 371.149 141.17 L 371.149 141.17 C 376.416 134.485 390 136.602 390 147.521 C 390 159.647 372.466 160.668 369.515 150.582 L 337.733 150.582 L 336.72 150.582 C 336.688 150.695 336.655 150.808 336.622 150.921 C 335.813 153.688 334.665 156.361 333.253 158.865 C 331.85 161.371 330.206 163.728 328.376 165.918 L 330.391 167.223 L 362.835 188.154 C 368.987 185.846 377.397 188.988 377.397 197.58 C 377.397 210.82 356.493 210.82 356.493 197.58 L 356.493 197.58 L 356.493 197.58 C 356.493 196.804 356.562 196.073 356.691 195.387 Z  M 329.489 324.653 C 329.489 311.107 350.393 311.107 350.393 324.653 C 350.393 337.893 329.489 337.893 329.489 324.653 L 329.489 324.653 L 329.489 324.653 L 329.489 324.653 L 329.489 324.653 L 329.489 324.653 L 329.489 324.653 L 329.489 324.653 L 329.489 324.653 L 329.489 324.653 L 329.489 324.653 L 329.489 324.653 L 329.489 324.653 L 329.489 324.653 L 329.489 324.653 L 329.489 324.653 L 329.489 324.653 Z  M 192.515 422.02 C 192.515 408.475 213.418 408.475 213.418 422.02 C 213.418 435.261 192.515 435.261 192.515 422.02 L 192.515 422.02 L 192.515 422.02 L 192.515 422.02 L 192.515 422.02 L 192.515 422.02 L 192.515 422.02 L 192.515 422.02 L 192.515 422.02 L 192.515 422.02 L 192.515 422.02 L 192.515 422.02 L 192.515 422.02 L 192.515 422.02 Z  M 136.405 167.875 C 136.405 154.329 157.308 154.329 157.308 167.875 C 157.308 181.115 136.405 181.115 136.405 167.875 L 136.405 167.875 L 136.405 167.875 L 136.405 167.875 L 136.405 167.875 L 136.405 167.875 L 136.405 167.875 L 136.405 167.875 L 136.405 167.875 Z  M 189.63 356.008 C 189.63 342.463 210.534 342.463 210.534 356.008 C 210.534 369.249 189.63 369.249 189.63 356.008 L 189.63 356.008 L 189.63 356.008 L 189.63 356.008 L 189.63 356.008 L 189.63 356.008 L 189.63 356.008 Z  M 213.418 189.879 C 213.418 176.333 234.322 176.333 234.322 189.879 C 234.322 203.119 213.418 203.119 213.418 189.879 L 213.418 189.879 L 213.418 189.879 L 213.418 189.879 L 213.418 189.879 L 213.418 189.879 Z  M 285.481 143.12 C 285.481 129.575 306.385 129.575 306.385 143.12 C 306.385 156.361 285.481 156.361 285.481 143.12 L 285.481 143.12 L 285.481 143.12 L 285.481 143.12 Z  M 201.786 202.442 L 201.767 200.071 C 201.748 196.231 201.899 192.39 202.219 188.569 C 202.482 185.313 202.934 182.056 203.555 178.856 C 204.12 176.051 204.892 173.284 205.833 170.592 C 206.737 168.089 207.828 165.679 209.108 163.345 C 210.407 160.992 211.894 158.752 213.532 156.625 C 215.339 154.291 217.297 152.069 219.367 149.98 C 221.758 147.608 224.243 145.33 226.822 143.166 C 229.852 140.643 232.94 138.196 236.102 135.862 C 241.749 131.495 247.811 127.674 254.173 124.436 C 259.105 121.951 264.3 120.069 269.684 118.789 C 272.094 118.224 274.541 117.81 276.988 117.527 C 279.36 117.264 281.731 117.132 284.122 117.151 C 286.494 117.189 288.866 117.358 291.238 117.659 C 293.534 117.96 295.831 118.393 298.09 118.958 C 302.363 120.577 306.466 122.61 310.382 124.982 C 313.224 126.713 315.822 128.822 318.099 131.231 C 319.662 132.907 320.923 134.827 321.808 136.935 C 322.485 138.61 322.843 140.38 322.843 142.168 C 322.824 143.693 322.617 145.199 322.184 146.667 C 321.695 148.342 320.998 149.942 320.151 151.467 C 319.172 153.18 318.043 154.799 316.782 156.324 C 315.408 157.961 313.92 159.505 312.32 160.936 C 308.989 163.891 305.28 166.394 301.308 168.371 C 299.426 169.312 297.487 170.122 295.492 170.78 C 293.741 171.364 291.934 171.816 290.108 172.098 C 287.774 172.437 285.515 173.058 283.331 173.943 C 281.073 174.865 278.964 176.164 277.12 177.783 C 275.162 179.496 273.543 181.604 272.414 183.938 C 271.228 186.404 270.531 189.059 270.362 191.788 C 270.286 192.635 270.268 193.482 270.268 194.329 C 270.324 198.696 271.002 203.045 272.263 207.243 C 273.43 211.252 275.068 215.13 277.12 218.782 C 280.169 224.052 283.087 229.398 285.854 234.82 C 288.357 239.658 290.598 244.627 292.574 249.672 C 294.381 254.246 295.812 258.952 296.847 263.733 C 297.826 268.27 298.334 272.882 298.334 277.513 C 298.315 283.066 297.6 288.581 296.169 293.946 C 294.438 300.308 292.009 306.464 288.941 312.299 C 284.197 321.373 278.324 329.787 271.435 337.354 C 264.413 345.072 256.507 351.943 247.867 357.816 C 239.246 363.689 229.965 368.546 220.196 372.216 C 210.614 375.868 200.581 378.221 190.379 379.238 C 188.383 379.426 186.369 379.539 184.374 379.539 C 182.303 379.539 180.232 379.407 178.181 379.125 C 176.524 378.899 174.886 378.522 173.305 378.014 C 170.99 377.299 168.863 376.113 167.056 374.513 C 165.681 373.233 164.608 371.651 163.912 369.882 C 163.159 367.887 162.764 365.741 162.801 363.595 C 162.82 360.564 163.347 357.533 164.307 354.672 C 165.399 351.378 166.924 348.253 168.806 345.354 C 170.745 342.342 173.079 339.594 175.715 337.185 C 178.369 334.756 181.362 332.742 184.637 331.255 C 191.056 327.076 197.061 322.276 202.539 316.911 C 207.019 312.563 210.953 307.688 214.266 302.398 C 217.127 297.824 219.349 292.892 220.873 287.734 C 222.21 283.122 222.888 278.36 222.906 273.56 C 222.906 271.583 222.775 269.607 222.549 267.63 C 221.777 261.343 220.29 255.169 218.125 249.22 C 217.165 246.585 216.111 243.987 214.982 241.408 C 213.909 238.999 212.798 236.589 211.668 234.199 C 210.501 231.714 209.372 229.21 208.261 226.707 C 207.188 224.241 206.21 221.737 205.325 219.196 C 203.461 213.775 202.256 208.146 201.786 202.442 L 201.786 202.442 L 201.786 202.442 L 201.786 202.442 L 201.786 202.442 L 201.786 202.442 L 201.786 202.442 L 201.786 202.442 L 201.786 202.442 L 201.786 202.442 L 201.786 202.442 L 201.786 202.442 L 201.786 202.442 L 201.786 202.442 L 201.786 202.442 L 201.786 202.442 L 201.786 202.442 L 201.786 202.442 L 201.786 202.442 L 201.786 202.442 L 201.786 202.442 L 201.786 202.442 L 201.786 202.442 L 201.786 202.442 L 201.786 202.442 L 201.786 202.442 L 201.786 202.442 L 201.786 202.442 L 201.786 202.442 L 201.786 202.442 L 201.786 202.442 L 201.786 202.442 L 201.786 202.442 L 201.786 202.442 L 201.786 202.442 Z " fill-rule="evenodd" fill="rgb(0,0,0)"/></g></svg>